<svg width="155" height="48" viewBox="0 0 155 48" fill="none" xmlns="http://www.w3.org/2000/svg">
<path fill-rule="evenodd" clip-rule="evenodd" d="M23.9569 1.12725C27.0674 1.12725 29.9377 2.15509 32.2469 3.88964C33.5073 2.21191 35.5137 1.12671 37.7737 1.12671V14.943H37.7732V14.9436C37.7732 22.5741 31.5875 28.7599 23.9569 28.7599C16.3264 28.7599 10.1406 22.5741 10.1406 14.9436C10.1406 7.31302 16.3264 1.12725 23.9569 1.12725ZM31.0957 14.828C31.0957 18.7068 27.9512 21.8513 24.0724 21.8513C20.1935 21.8513 17.0491 18.7068 17.0491 14.828C17.0491 10.9491 20.1935 7.80469 24.0724 7.80469C27.9512 7.80469 31.0957 10.9491 31.0957 14.828ZM32.8227 46.7205C34.794 46.7205 36.3919 45.1225 36.3919 43.1513C36.3919 41.1801 34.794 39.5821 32.8227 39.5821C30.8515 39.5821 29.2535 41.1801 29.2535 43.1513C29.2535 45.1225 30.8515 46.7205 32.8227 46.7205ZM36.162 30.3713C36.162 33.4203 34.1868 36.0079 31.4462 36.9244L31.4413 36.9341L21.5722 40.5607L12.3763 43.9574L12.3709 43.9419L12.3288 43.9574L12.3553 43.897C12.1142 43.1939 11.9832 42.4395 11.9832 41.6546C11.9832 38.5072 14.0882 35.8513 16.9671 35.018L32.9005 29.241L35.8084 28.1838L35.8093 28.1864L35.8165 28.1838L35.8116 28.1935C36.0389 28.8781 36.162 29.6104 36.162 30.3713Z" fill="url(#paint0_linear)"/>
<path d="M68.175 19.3H68.075C67.925 20.15 67.45 20.8667 66.65 21.45C65.8667 22.0167 64.8167 22.3 63.5 22.3C62.4667 22.3 61.5083 22.1083 60.625 21.725C59.7583 21.3417 59 20.775 58.35 20.025C57.7167 19.2583 57.2167 18.3167 56.85 17.2C56.4833 16.0833 56.3 14.7917 56.3 13.325C56.3 11.8583 56.4833 10.5667 56.85 9.45C57.2333 8.31667 57.7667 7.36667 58.45 6.6C59.1333 5.83333 59.95 5.25 60.9 4.85C61.85 4.45 62.9083 4.25 64.075 4.25C65.6417 4.25 66.975 4.59167 68.075 5.275C69.175 5.95833 70.0417 6.94167 70.675 8.225L68 9.8C67.6833 9.05 67.2083 8.425 66.575 7.925C65.9583 7.425 65.125 7.175 64.075 7.175C62.775 7.175 61.7333 7.575 60.95 8.375C60.1833 9.15833 59.8 10.325 59.8 11.875V14.675C59.8 16.2083 60.1917 17.375 60.975 18.175C61.7583 18.975 62.8083 19.375 64.125 19.375C64.6417 19.375 65.125 19.3167 65.575 19.2C66.025 19.0667 66.4167 18.875 66.75 18.625C67.0833 18.375 67.35 18.0667 67.55 17.7C67.75 17.3333 67.85 16.9 67.85 16.4V15.275H64.425V12.5H71.025V22H68.175V19.3ZM82.4479 19.825H82.3229C82.2062 20.1583 82.0479 20.475 81.8479 20.775C81.6645 21.0583 81.4229 21.3167 81.1229 21.55C80.8395 21.7833 80.4895 21.9667 80.0729 22.1C79.6729 22.2333 79.2062 22.3 78.6729 22.3C77.3229 22.3 76.2895 21.8583 75.5729 20.975C74.8562 20.0917 74.4979 18.8333 74.4979 17.2V8.95H77.6979V16.875C77.6979 17.775 77.8729 18.4667 78.2229 18.95C78.5729 19.4167 79.1312 19.65 79.8979 19.65C80.2145 19.65 80.5229 19.6083 80.8229 19.525C81.1395 19.4417 81.4145 19.3167 81.6479 19.15C81.8812 18.9667 82.0729 18.75 82.2229 18.5C82.3729 18.2333 82.4479 17.925 82.4479 17.575V8.95H85.6479V22H82.4479V19.825ZM90.9451 7.05C90.2785 7.05 89.7951 6.9 89.4951 6.6C89.2118 6.3 89.0701 5.91667 89.0701 5.45V4.95C89.0701 4.48333 89.2118 4.1 89.4951 3.8C89.7951 3.5 90.2785 3.35 90.9451 3.35C91.5951 3.35 92.0701 3.5 92.3701 3.8C92.6701 4.1 92.8201 4.48333 92.8201 4.95V5.45C92.8201 5.91667 92.6701 6.3 92.3701 6.6C92.0701 6.9 91.5951 7.05 90.9451 7.05ZM89.3451 8.95H92.5451V22H89.3451V8.95ZM104.354 19.825H104.229C103.996 20.575 103.554 21.175 102.904 21.625C102.254 22.075 101.496 22.3 100.629 22.3C98.9793 22.3 97.7126 21.7083 96.8293 20.525C95.9626 19.3417 95.5293 17.65 95.5293 15.45C95.5293 13.2667 95.9626 11.5917 96.8293 10.425C97.7126 9.24167 98.9793 8.65 100.629 8.65C101.496 8.65 102.254 8.875 102.904 9.325C103.554 9.75833 103.996 10.35 104.229 11.1H104.354V3.5H107.554V22H104.354V19.825ZM101.654 19.65C102.421 19.65 103.063 19.4667 103.579 19.1C104.096 18.7333 104.354 18.2083 104.354 17.525V13.375C104.354 12.7417 104.096 12.2333 103.579 11.85C103.063 11.4667 102.421 11.275 101.654 11.275C100.821 11.275 100.146 11.5583 99.6293 12.125C99.1293 12.675 98.8793 13.4167 98.8793 14.35V16.6C98.8793 17.5333 99.1293 18.275 99.6293 18.825C100.146 19.375 100.821 19.65 101.654 19.65ZM116.42 22.3C115.486 22.3 114.645 22.1417 113.895 21.825C113.161 21.5083 112.528 21.05 111.995 20.45C111.478 19.85 111.078 19.1333 110.795 18.3C110.511 17.45 110.37 16.5 110.37 15.45C110.37 14.4 110.511 13.4583 110.795 12.625C111.078 11.7917 111.478 11.0833 111.995 10.5C112.528 9.9 113.161 9.44167 113.895 9.125C114.645 8.80833 115.486 8.65 116.42 8.65C117.353 8.65 118.195 8.80833 118.945 9.125C119.695 9.44167 120.328 9.9 120.845 10.5C121.378 11.0833 121.786 11.7917 122.07 12.625C122.353 13.4583 122.495 14.4 122.495 15.45C122.495 16.5 122.353 17.45 122.07 18.3C121.786 19.1333 121.378 19.85 120.845 20.45C120.328 21.05 119.695 21.5083 118.945 21.825C118.195 22.1417 117.353 22.3 116.42 22.3ZM116.42 19.725C117.27 19.725 117.936 19.4667 118.42 18.95C118.903 18.4333 119.145 17.675 119.145 16.675V14.25C119.145 13.2667 118.903 12.5167 118.42 12C117.936 11.4833 117.27 11.225 116.42 11.225C115.586 11.225 114.928 11.4833 114.445 12C113.961 12.5167 113.72 13.2667 113.72 14.25V16.675C113.72 17.675 113.961 18.4333 114.445 18.95C114.928 19.4667 115.586 19.725 116.42 19.725ZM61.1 47L55.4 29.55H58.775L61.45 38.05L63 43.85H63.075L64.6 38.05L67.275 29.55H70.55L64.85 47H61.1ZM74.3924 32.05C73.7257 32.05 73.2424 31.9 72.9424 31.6C72.659 31.3 72.5174 30.9167 72.5174 30.45V29.95C72.5174 29.4833 72.659 29.1 72.9424 28.8C73.2424 28.5 73.7257 28.35 74.3924 28.35C75.0424 28.35 75.5174 28.5 75.8174 28.8C76.1174 29.1 76.2674 29.4833 76.2674 29.95V30.45C76.2674 30.9167 76.1174 31.3 75.8174 31.6C75.5174 31.9 75.0424 32.05 74.3924 32.05ZM72.7924 33.95H75.9924V47H72.7924V33.95ZM87.8016 44.825H87.6766C87.4432 45.575 87.0016 46.175 86.3516 46.625C85.7016 47.075 84.9432 47.3 84.0766 47.3C82.4266 47.3 81.1599 46.7083 80.2766 45.525C79.4099 44.3417 78.9766 42.65 78.9766 40.45C78.9766 38.2667 79.4099 36.5917 80.2766 35.425C81.1599 34.2417 82.4266 33.65 84.0766 33.65C84.9432 33.65 85.7016 33.875 86.3516 34.325C87.0016 34.7583 87.4432 35.35 87.6766 36.1H87.8016V28.5H91.0016V47H87.8016V44.825ZM85.1016 44.65C85.8682 44.65 86.5099 44.4667 87.0266 44.1C87.5432 43.7333 87.8016 43.2083 87.8016 42.525V38.375C87.8016 37.7417 87.5432 37.2333 87.0266 36.85C86.5099 36.4667 85.8682 36.275 85.1016 36.275C84.2682 36.275 83.5932 36.5583 83.0766 37.125C82.5766 37.675 82.3266 38.4167 82.3266 39.35V41.6C82.3266 42.5333 82.5766 43.275 83.0766 43.825C83.5932 44.375 84.2682 44.65 85.1016 44.65ZM104.292 47C103.592 47 103.033 46.8 102.617 46.4C102.217 45.9833 101.967 45.4333 101.867 44.75H101.717C101.5 45.6 101.058 46.2417 100.392 46.675C99.7251 47.0917 98.9001 47.3 97.9168 47.3C96.5835 47.3 95.5585 46.95 94.8418 46.25C94.1251 45.55 93.7668 44.6167 93.7668 43.45C93.7668 42.1 94.2501 41.1 95.2168 40.45C96.1835 39.7833 97.5585 39.45 99.3418 39.45H101.567V38.5C101.567 37.7667 101.375 37.2 100.992 36.8C100.608 36.4 99.9918 36.2 99.1418 36.2C98.3918 36.2 97.7835 36.3667 97.3168 36.7C96.8668 37.0167 96.4835 37.4 96.1668 37.85L94.2668 36.15C94.7501 35.4 95.3918 34.8 96.1918 34.35C96.9918 33.8833 98.0501 33.65 99.3668 33.65C101.133 33.65 102.475 34.05 103.392 34.85C104.308 35.65 104.767 36.8 104.767 38.3V44.45H106.067V47H104.292ZM98.9918 44.975C99.7085 44.975 100.317 44.8167 100.817 44.5C101.317 44.1833 101.567 43.7167 101.567 43.1V41.375H99.5168C97.8501 41.375 97.0168 41.9083 97.0168 42.975V43.4C97.0168 43.9333 97.1835 44.3333 97.5168 44.6C97.8668 44.85 98.3585 44.975 98.9918 44.975ZM116.457 44.825H116.332C116.215 45.1583 116.057 45.475 115.857 45.775C115.673 46.0583 115.432 46.3167 115.132 46.55C114.848 46.7833 114.498 46.9667 114.082 47.1C113.682 47.2333 113.215 47.3 112.682 47.3C111.332 47.3 110.298 46.8583 109.582 45.975C108.865 45.0917 108.507 43.8333 108.507 42.2V33.95H111.707V41.875C111.707 42.775 111.882 43.4667 112.232 43.95C112.582 44.4167 113.14 44.65 113.907 44.65C114.223 44.65 114.532 44.6083 114.832 44.525C115.148 44.4417 115.423 44.3167 115.657 44.15C115.89 43.9667 116.082 43.75 116.232 43.5C116.382 43.2333 116.457 42.925 116.457 42.575V33.95H119.657V47H116.457V44.825ZM123.354 47V33.95H126.554V36.65H126.679C126.762 36.3 126.887 35.9667 127.054 35.65C127.237 35.3167 127.471 35.025 127.754 34.775C128.037 34.525 128.371 34.325 128.754 34.175C129.154 34.025 129.612 33.95 130.129 33.95H130.829V36.975H129.829C128.746 36.975 127.929 37.1333 127.379 37.45C126.829 37.7667 126.554 38.2833 126.554 39V47H123.354ZM133.168 47V33.95H136.368V36.65H136.493C136.577 36.3 136.702 35.9667 136.868 35.65C137.052 35.3167 137.285 35.025 137.568 34.775C137.852 34.525 138.185 34.325 138.568 34.175C138.968 34.025 139.427 33.95 139.943 33.95H140.643V36.975H139.643C138.56 36.975 137.743 37.1333 137.193 37.45C136.643 37.7667 136.368 38.2833 136.368 39V47H133.168ZM148.136 47.3C147.169 47.3 146.302 47.1417 145.536 46.825C144.786 46.4917 144.144 46.0333 143.611 45.45C143.094 44.85 142.694 44.1333 142.411 43.3C142.127 42.45 141.986 41.5 141.986 40.45C141.986 39.4167 142.119 38.4833 142.386 37.65C142.669 36.8167 143.069 36.1083 143.586 35.525C144.102 34.925 144.736 34.4667 145.486 34.15C146.236 33.8167 147.086 33.65 148.036 33.65C149.052 33.65 149.936 33.825 150.686 34.175C151.436 34.525 152.052 35 152.536 35.6C153.019 36.2 153.377 36.9 153.611 37.7C153.861 38.4833 153.986 39.325 153.986 40.225V41.275H145.311V41.6C145.311 42.55 145.577 43.3167 146.111 43.9C146.644 44.4667 147.436 44.75 148.486 44.75C149.286 44.75 149.936 44.5833 150.436 44.25C150.952 43.9167 151.411 43.4917 151.811 42.975L153.536 44.9C153.002 45.65 152.269 46.2417 151.336 46.675C150.419 47.0917 149.352 47.3 148.136 47.3ZM148.086 36.05C147.236 36.05 146.561 36.3333 146.061 36.9C145.561 37.4667 145.311 38.2 145.311 39.1V39.3H150.661V39.075C150.661 38.175 150.436 37.45 149.986 36.9C149.552 36.3333 148.919 36.05 148.086 36.05Z" fill="white"/>
<defs>
<linearGradient id="paint0_linear" x1="23.9572" y1="1.12671" x2="23.9572" y2="46.7205" gradientUnits="userSpaceOnUse">
<stop stop-color="#5F66FC"/>
<stop offset="1" stop-color="#6D29FF"/>
</linearGradient>
</defs>
</svg>
