<svg width="48" height="48" viewBox="0 0 48 48" fill="none" xmlns="http://www.w3.org/2000/svg">
<path fill-rule="evenodd" clip-rule="evenodd" d="M23.9569 1.12725C27.0674 1.12725 29.9377 2.15509 32.2469 3.88964C33.5073 2.21191 35.5137 1.12671 37.7737 1.12671V14.943H37.7732V14.9436C37.7732 22.5741 31.5875 28.7599 23.9569 28.7599C16.3264 28.7599 10.1406 22.5741 10.1406 14.9436C10.1406 7.31302 16.3264 1.12725 23.9569 1.12725ZM31.0957 14.828C31.0957 18.7068 27.9512 21.8513 24.0724 21.8513C20.1935 21.8513 17.0491 18.7068 17.0491 14.828C17.0491 10.9491 20.1935 7.80469 24.0724 7.80469C27.9512 7.80469 31.0957 10.9491 31.0957 14.828ZM32.8227 46.7205C34.794 46.7205 36.3919 45.1225 36.3919 43.1513C36.3919 41.1801 34.794 39.5821 32.8227 39.5821C30.8515 39.5821 29.2535 41.1801 29.2535 43.1513C29.2535 45.1225 30.8515 46.7205 32.8227 46.7205ZM36.162 30.3713C36.162 33.4203 34.1868 36.0079 31.4462 36.9244L31.4413 36.9341L21.5722 40.5607L12.3763 43.9574L12.3709 43.9419L12.3288 43.9574L12.3553 43.897C12.1142 43.1939 11.9832 42.4395 11.9832 41.6546C11.9832 38.5072 14.0882 35.8513 16.9671 35.018L32.9005 29.241L35.8084 28.1838L35.8093 28.1864L35.8165 28.1838L35.8116 28.1935C36.0389 28.8781 36.162 29.6104 36.162 30.3713Z" fill="url(#paint0_linear)"/>
<defs>
<linearGradient id="paint0_linear" x1="23.9572" y1="1.12671" x2="23.9572" y2="46.7205" gradientUnits="userSpaceOnUse">
<stop stop-color="#5F66FC"/>
<stop offset="1" stop-color="#6D29FF"/>
</linearGradient>
</defs>
</svg>
