<svg width="99" height="45" viewBox="0 0 99 45" fill="none" xmlns="http://www.w3.org/2000/svg">
<path d="M13.175 16.3H13.075C12.925 17.15 12.45 17.8667 11.65 18.45C10.8667 19.0167 9.81667 19.3 8.5 19.3C7.46667 19.3 6.50833 19.1083 5.625 18.725C4.75833 18.3417 4 17.775 3.35 17.025C2.71667 16.2583 2.21667 15.3167 1.85 14.2C1.48333 13.0833 1.3 11.7917 1.3 10.325C1.3 8.85833 1.48333 7.56667 1.85 6.45C2.23333 5.31667 2.76667 4.36667 3.45 3.6C4.13333 2.83333 4.95 2.25 5.9 1.85C6.85 1.45 7.90833 1.25 9.075 1.25C10.6417 1.25 11.975 1.59167 13.075 2.275C14.175 2.95833 15.0417 3.94167 15.675 5.225L13 6.8C12.6833 6.05 12.2083 5.425 11.575 4.925C10.9583 4.425 10.125 4.175 9.075 4.175C7.775 4.175 6.73333 4.575 5.95 5.375C5.18333 6.15833 4.8 7.325 4.8 8.875V11.675C4.8 13.2083 5.19167 14.375 5.975 15.175C6.75833 15.975 7.80833 16.375 9.125 16.375C9.64167 16.375 10.125 16.3167 10.575 16.2C11.025 16.0667 11.4167 15.875 11.75 15.625C12.0833 15.375 12.35 15.0667 12.55 14.7C12.75 14.3333 12.85 13.9 12.85 13.4V12.275H9.425V9.5H16.025V19H13.175V16.3ZM27.4479 16.825H27.3229C27.2062 17.1583 27.0479 17.475 26.8479 17.775C26.6645 18.0583 26.4229 18.3167 26.1229 18.55C25.8395 18.7833 25.4895 18.9667 25.0729 19.1C24.6729 19.2333 24.2062 19.3 23.6729 19.3C22.3229 19.3 21.2895 18.8583 20.5729 17.975C19.8562 17.0917 19.4979 15.8333 19.4979 14.2V5.95H22.6979V13.875C22.6979 14.775 22.8729 15.4667 23.2229 15.95C23.5729 16.4167 24.1312 16.65 24.8979 16.65C25.2145 16.65 25.5229 16.6083 25.8229 16.525C26.1395 16.4417 26.4145 16.3167 26.6479 16.15C26.8812 15.9667 27.0729 15.75 27.2229 15.5C27.3729 15.2333 27.4479 14.925 27.4479 14.575V5.95H30.6479V19H27.4479V16.825ZM35.9451 4.05C35.2785 4.05 34.7951 3.9 34.4951 3.6C34.2118 3.3 34.0701 2.91667 34.0701 2.45V1.95C34.0701 1.48333 34.2118 1.1 34.4951 0.799999C34.7951 0.499999 35.2785 0.349999 35.9451 0.349999C36.5951 0.349999 37.0701 0.499999 37.3701 0.799999C37.6701 1.1 37.8201 1.48333 37.8201 1.95V2.45C37.8201 2.91667 37.6701 3.3 37.3701 3.6C37.0701 3.9 36.5951 4.05 35.9451 4.05ZM34.3451 5.95H37.5451V19H34.3451V5.95ZM49.3543 16.825H49.2293C48.996 17.575 48.5543 18.175 47.9043 18.625C47.2543 19.075 46.496 19.3 45.6293 19.3C43.9793 19.3 42.7126 18.7083 41.8293 17.525C40.9626 16.3417 40.5293 14.65 40.5293 12.45C40.5293 10.2667 40.9626 8.59167 41.8293 7.425C42.7126 6.24167 43.9793 5.65 45.6293 5.65C46.496 5.65 47.2543 5.875 47.9043 6.325C48.5543 6.75833 48.996 7.35 49.2293 8.1H49.3543V0.5H52.5543V19H49.3543V16.825ZM46.6543 16.65C47.421 16.65 48.0626 16.4667 48.5793 16.1C49.096 15.7333 49.3543 15.2083 49.3543 14.525V10.375C49.3543 9.74167 49.096 9.23333 48.5793 8.85C48.0626 8.46667 47.421 8.275 46.6543 8.275C45.821 8.275 45.146 8.55833 44.6293 9.125C44.1293 9.675 43.8793 10.4167 43.8793 11.35V13.6C43.8793 14.5333 44.1293 15.275 44.6293 15.825C45.146 16.375 45.821 16.65 46.6543 16.65ZM61.4195 19.3C60.4862 19.3 59.6445 19.1417 58.8945 18.825C58.1612 18.5083 57.5279 18.05 56.9945 17.45C56.4779 16.85 56.0779 16.1333 55.7945 15.3C55.5112 14.45 55.3695 13.5 55.3695 12.45C55.3695 11.4 55.5112 10.4583 55.7945 9.625C56.0779 8.79167 56.4779 8.08333 56.9945 7.5C57.5279 6.9 58.1612 6.44167 58.8945 6.125C59.6445 5.80833 60.4862 5.65 61.4195 5.65C62.3529 5.65 63.1945 5.80833 63.9445 6.125C64.6945 6.44167 65.3279 6.9 65.8445 7.5C66.3779 8.08333 66.7862 8.79167 67.0695 9.625C67.3529 10.4583 67.4945 11.4 67.4945 12.45C67.4945 13.5 67.3529 14.45 67.0695 15.3C66.7862 16.1333 66.3779 16.85 65.8445 17.45C65.3279 18.05 64.6945 18.5083 63.9445 18.825C63.1945 19.1417 62.3529 19.3 61.4195 19.3ZM61.4195 16.725C62.2695 16.725 62.9362 16.4667 63.4195 15.95C63.9029 15.4333 64.1445 14.675 64.1445 13.675V11.25C64.1445 10.2667 63.9029 9.51667 63.4195 9C62.9362 8.48333 62.2695 8.225 61.4195 8.225C60.5862 8.225 59.9279 8.48333 59.4445 9C58.9612 9.51667 58.7195 10.2667 58.7195 11.25V13.675C58.7195 14.675 58.9612 15.4333 59.4445 15.95C59.9279 16.4667 60.5862 16.725 61.4195 16.725ZM6.1 44L0.4 26.55H3.775L6.45 35.05L8 40.85H8.075L9.6 35.05L12.275 26.55H15.55L9.85 44H6.1ZM19.3924 29.05C18.7257 29.05 18.2424 28.9 17.9424 28.6C17.659 28.3 17.5174 27.9167 17.5174 27.45V26.95C17.5174 26.4833 17.659 26.1 17.9424 25.8C18.2424 25.5 18.7257 25.35 19.3924 25.35C20.0424 25.35 20.5174 25.5 20.8174 25.8C21.1174 26.1 21.2674 26.4833 21.2674 26.95V27.45C21.2674 27.9167 21.1174 28.3 20.8174 28.6C20.5174 28.9 20.0424 29.05 19.3924 29.05ZM17.7924 30.95H20.9924V44H17.7924V30.95ZM32.8016 41.825H32.6766C32.4432 42.575 32.0016 43.175 31.3516 43.625C30.7016 44.075 29.9432 44.3 29.0766 44.3C27.4266 44.3 26.1599 43.7083 25.2766 42.525C24.4099 41.3417 23.9766 39.65 23.9766 37.45C23.9766 35.2667 24.4099 33.5917 25.2766 32.425C26.1599 31.2417 27.4266 30.65 29.0766 30.65C29.9432 30.65 30.7016 30.875 31.3516 31.325C32.0016 31.7583 32.4432 32.35 32.6766 33.1H32.8016V25.5H36.0016V44H32.8016V41.825ZM30.1016 41.65C30.8682 41.65 31.5099 41.4667 32.0266 41.1C32.5432 40.7333 32.8016 40.2083 32.8016 39.525V35.375C32.8016 34.7417 32.5432 34.2333 32.0266 33.85C31.5099 33.4667 30.8682 33.275 30.1016 33.275C29.2682 33.275 28.5932 33.5583 28.0766 34.125C27.5766 34.675 27.3266 35.4167 27.3266 36.35V38.6C27.3266 39.5333 27.5766 40.275 28.0766 40.825C28.5932 41.375 29.2682 41.65 30.1016 41.65ZM49.2918 44C48.5918 44 48.0335 43.8 47.6168 43.4C47.2168 42.9833 46.9668 42.4333 46.8668 41.75H46.7168C46.5001 42.6 46.0585 43.2417 45.3918 43.675C44.7251 44.0917 43.9001 44.3 42.9168 44.3C41.5835 44.3 40.5585 43.95 39.8418 43.25C39.1251 42.55 38.7668 41.6167 38.7668 40.45C38.7668 39.1 39.2501 38.1 40.2168 37.45C41.1835 36.7833 42.5585 36.45 44.3418 36.45H46.5668V35.5C46.5668 34.7667 46.3751 34.2 45.9918 33.8C45.6085 33.4 44.9918 33.2 44.1418 33.2C43.3918 33.2 42.7835 33.3667 42.3168 33.7C41.8668 34.0167 41.4835 34.4 41.1668 34.85L39.2668 33.15C39.7501 32.4 40.3918 31.8 41.1918 31.35C41.9918 30.8833 43.0501 30.65 44.3668 30.65C46.1335 30.65 47.4751 31.05 48.3918 31.85C49.3085 32.65 49.7668 33.8 49.7668 35.3V41.45H51.0668V44H49.2918ZM43.9918 41.975C44.7085 41.975 45.3168 41.8167 45.8168 41.5C46.3168 41.1833 46.5668 40.7167 46.5668 40.1V38.375H44.5168C42.8501 38.375 42.0168 38.9083 42.0168 39.975V40.4C42.0168 40.9333 42.1835 41.3333 42.5168 41.6C42.8668 41.85 43.3585 41.975 43.9918 41.975ZM61.4566 41.825H61.3316C61.215 42.1583 61.0566 42.475 60.8566 42.775C60.6733 43.0583 60.4316 43.3167 60.1316 43.55C59.8483 43.7833 59.4983 43.9667 59.0816 44.1C58.6816 44.2333 58.215 44.3 57.6816 44.3C56.3316 44.3 55.2983 43.8583 54.5816 42.975C53.865 42.0917 53.5066 40.8333 53.5066 39.2V30.95H56.7066V38.875C56.7066 39.775 56.8816 40.4667 57.2316 40.95C57.5816 41.4167 58.14 41.65 58.9066 41.65C59.2233 41.65 59.5316 41.6083 59.8316 41.525C60.1483 41.4417 60.4233 41.3167 60.6566 41.15C60.89 40.9667 61.0816 40.75 61.2316 40.5C61.3816 40.2333 61.4566 39.925 61.4566 39.575V30.95H64.6566V44H61.4566V41.825ZM68.3539 44V30.95H71.5539V33.65H71.6789C71.7622 33.3 71.8872 32.9667 72.0539 32.65C72.2372 32.3167 72.4706 32.025 72.7539 31.775C73.0372 31.525 73.3706 31.325 73.7539 31.175C74.1539 31.025 74.6122 30.95 75.1289 30.95H75.8289V33.975H74.8289C73.7456 33.975 72.9289 34.1333 72.3789 34.45C71.8289 34.7667 71.5539 35.2833 71.5539 36V44H68.3539ZM78.1684 44V30.95H81.3684V33.65H81.4934C81.5767 33.3 81.7017 32.9667 81.8684 32.65C82.0517 32.3167 82.285 32.025 82.5684 31.775C82.8517 31.525 83.185 31.325 83.5684 31.175C83.9684 31.025 84.4267 30.95 84.9434 30.95H85.6434V33.975H84.6434C83.56 33.975 82.7434 34.1333 82.1934 34.45C81.6434 34.7667 81.3684 35.2833 81.3684 36V44H78.1684ZM93.1357 44.3C92.1691 44.3 91.3024 44.1417 90.5357 43.825C89.7857 43.4917 89.1441 43.0333 88.6107 42.45C88.0941 41.85 87.6941 41.1333 87.4107 40.3C87.1274 39.45 86.9857 38.5 86.9857 37.45C86.9857 36.4167 87.1191 35.4833 87.3857 34.65C87.6691 33.8167 88.0691 33.1083 88.5857 32.525C89.1024 31.925 89.7357 31.4667 90.4857 31.15C91.2357 30.8167 92.0857 30.65 93.0357 30.65C94.0524 30.65 94.9357 30.825 95.6857 31.175C96.4357 31.525 97.0524 32 97.5357 32.6C98.0191 33.2 98.3774 33.9 98.6107 34.7C98.8607 35.4833 98.9857 36.325 98.9857 37.225V38.275H90.3107V38.6C90.3107 39.55 90.5774 40.3167 91.1107 40.9C91.6441 41.4667 92.4357 41.75 93.4857 41.75C94.2857 41.75 94.9357 41.5833 95.4357 41.25C95.9524 40.9167 96.4107 40.4917 96.8107 39.975L98.5357 41.9C98.0024 42.65 97.2691 43.2417 96.3357 43.675C95.4191 44.0917 94.3524 44.3 93.1357 44.3ZM93.0857 33.05C92.2357 33.05 91.5607 33.3333 91.0607 33.9C90.5607 34.4667 90.3107 35.2 90.3107 36.1V36.3H95.6607V36.075C95.6607 35.175 95.4357 34.45 94.9857 33.9C94.5524 33.3333 93.9191 33.05 93.0857 33.05Z" fill="white"/>
</svg>
